<svg xmlns="http://www.w3.org/2000/svg" style="display:none"><symbol id="a" viewBox="0 0 24 24" fill="none"><g clip-path="url(#clip0_6_12363)"><path d="M12 2C6.5 2 2 6.5 2 12C2 17.5 6.5 22 12 22C17.5 22 22 17.5 22 12C22 6.5 17.5 2 12 2ZM16.2 16.2L11 13V7H12.5V12.2L17 14.9L16.2 16.2Z" fill="#323232"/></g><defs><clipPath id="clip0_6_12363"><rect width="24" height="24" fill="white"/></clipPath></defs></symbol><symbol id="b" viewBox="0 0 24 24" fill="none"><g clip-path="url(#clip0_6_12080)"><path d="M12 1L3 5V11C3 16.55 6.84 21.74 12 23C17.16 21.74 21 16.55 21 11V5L12 1ZM10 17L6 13L7.41 11.59L10 14.17L16.59 7.58L18 9L10 17Z" fill="#323232"/></g><defs><clipPath id="clip0_6_12080"><rect width="24" height="24" fill="white"/></clipPath></defs></symbol><symbol id="c" viewBox="0 0 24 24" fill="none"><g clip-path="url(#clip0_6_12339)"><path d="M23 12L20.56 9.21L20.9 5.52L17.29 4.7L15.4 1.5L12 2.96L8.6 1.5L6.71 4.69L3.1 5.5L3.44 9.2L1 12L3.44 14.79L3.1 18.49L6.71 19.31L8.6 22.5L12 21.03L15.4 22.49L17.29 19.3L20.9 18.48L20.56 14.79L23 12ZM10.09 16.72L6.29 12.91L7.77 11.43L10.09 13.76L15.94 7.89L17.42 9.37L10.09 16.72Z" fill="#323232"/></g><defs><clipPath id="clip0_6_12339"><rect width="24" height="24" fill="white"/></clipPath></defs></symbol><symbol id="d" viewBox="0 0 24 24" fill="none"><g clip-path="url(#clip0_6_12285)"><path d="M16 6L18.29 8.29L13.41 13.17L9.41 9.17L2 16.59L3.41 18L9.41 12L13.41 16L19.71 9.71L22 12V6H16Z" fill="#323232"/></g><defs><clipPath id="clip0_6_12285"><rect width="24" height="24" fill="white"/></clipPath></defs></symbol><symbol id="e" viewBox="0 0 24 24" fill="none"><g clip-path="url(#clip0_6_12195)"><path d="M22 12L18 8V11H3V13H18V16L22 12Z" fill="#323232"/></g><defs><clipPath id="clip0_6_12195"><rect width="24" height="24" fill="white"/></clipPath></defs></symbol><symbol id="f" viewBox="0 0 24 24" fill="none"><g clip-path="url(#clip0_6_12198)"><path d="M16 18L18.29 15.71L13.41 10.83L9.41 14.83L2 7.41L3.41 6L9.41 12L13.41 8L19.71 14.29L22 12V18H16Z" fill="#323232"/></g><defs><clipPath id="clip0_6_12198"><rect width="24" height="24" fill="white"/></clipPath></defs></symbol><symbol id="g" viewBox="0 0 24 24" fill="none"><g clip-path="url(#clip0_6_12087)"><path d="M15 4C10.58 4 7 7.58 7 12C7 16.42 10.58 20 15 20C19.42 20 23 16.42 23 12C23 7.58 19.42 4 15 4ZM15 18C11.69 18 9 15.31 9 12C9 8.69 11.69 6 15 6C18.31 6 21 8.69 21 12C21 15.31 18.31 18 15 18Z" fill="#323232"/><path d="M3 12C3 9.39001 4.67 7.17001 7 6.35001V4.26001C3.55 5.15001 1 8.27001 1 12C1 15.73 3.55 18.85 7 19.74V17.65C4.67 16.83 3 14.61 3 12Z" fill="#323232"/></g><defs><clipPath id="clip0_6_12087"><rect width="24" height="24" fill="white"/></clipPath></defs></symbol><symbol id="h" viewBox="0 0 24 24" fill="none"><g clip-path="url(#clip0_6_12088)"><path d="M19 3H18V1H16V3H8V1H6V3H5C3.89 3 3.01 3.9 3.01 5L3 19C3 20.1 3.89 21 5 21H19C20.1 21 21 20.1 21 19V5C21 3.9 20.1 3 19 3ZM19 19H5V8H19V19ZM7 10H12V15H7V10Z" fill="#323232"/></g><defs><clipPath id="clip0_6_12088"><rect width="24" height="24" fill="white"/></clipPath></defs></symbol><symbol id="i" viewBox="0 0 24 24" fill="none"><g clip-path="url(#clip0_6_12393)"><path d="M23 8C23 9.1 22.1 10 21 10C20.82 10 20.65 9.98 20.49 9.93L16.93 13.48C16.98 13.64 17 13.82 17 14C17 15.1 16.1 16 15 16C13.9 16 13 15.1 13 14C13 13.82 13.02 13.64 13.07 13.48L10.52 10.93C10.36 10.98 10.18 11 10 11C9.82 11 9.64 10.98 9.48 10.93L4.93 15.49C4.98 15.65 5 15.82 5 16C5 17.1 4.1 18 3 18C1.9 18 1 17.1 1 16C1 14.9 1.9 14 3 14C3.18 14 3.35 14.02 3.51 14.07L8.07 9.52C8.02 9.36 8 9.18 8 9C8 7.9 8.9 7 10 7C11.1 7 12 7.9 12 9C12 9.18 11.98 9.36 11.93 9.52L14.48 12.07C14.64 12.02 14.82 12 15 12C15.18 12 15.36 12.02 15.52 12.07L19.07 8.51C19.02 8.35 19 8.18 19 8C19 6.9 19.9 6 21 6C22.1 6 23 6.9 23 8Z" fill="#323232"/></g><defs><clipPath id="clip0_6_12393"><rect width="24" height="24" fill="white"/></clipPath></defs></symbol><symbol id="j" viewBox="0 0 24 24" fill="none"><g clip-path="url(#clip0_6_12093)"><path d="M12 6C12 5.45 11.55 5 11 5H5.82L6.48 1.82L6.5 1.59C6.5 1.28 6.37 1 6.17 0.79L5.38 0L0.44 4.94C0.17 5.21 0 5.59 0 6V12.5C0 13.33 0.67 14 1.5 14H8.25C8.87 14 9.4 13.62 9.63 13.09L11.89 7.8C11.96 7.63 12 7.44 12 7.25V6ZM22.5 10H15.75C15.13 10 14.6 10.38 14.37 10.91L12.11 16.2C12.04 16.37 12 16.56 12 16.75V18C12 18.55 12.45 19 13 19H18.18L17.52 22.18L17.5 22.42C17.5 22.73 17.63 23.01 17.83 23.22L18.62 24L23.56 19.06C23.83 18.79 24 18.41 24 18V11.5C24 10.67 23.33 10 22.5 10Z" fill="#323232"/></g><defs><clipPath id="clip0_6_12093"><rect width="24" height="24" fill="white"/></clipPath></defs></symbol><symbol id="k" viewBox="0 0 24 24" fill="none"><g clip-path="url(#clip0_6_12352)"><path d="M13.11 5.72L12.54 8.61C12.42 9.2 12.58 9.81 12.96 10.27C13.34 10.73 13.9 11 14.5 11H20V12.08L17.43 18H9.34C9.16 18 9 17.84 9 17.66V9.82L13.11 5.72ZM14 2L7.59 8.41C7.21 8.79 7 9.3 7 9.83V17.66C7 18.95 8.05 20 9.34 20H17.44C18.15 20 18.8 19.63 19.16 19.03L21.83 12.88C21.94 12.63 22 12.36 22 12.08V11C22 9.9 21.1 9 20 9H14.5L15.42 4.35C15.47 4.13 15.44 3.89 15.34 3.69C15.11 3.24 14.82 2.83 14.46 2.47L14 2ZM4 9H2V20H4C4.55 20 5 19.55 5 19V10C5 9.45 4.55 9 4 9Z" fill="#323232"/></g><defs><clipPath id="clip0_6_12352"><rect width="24" height="24" fill="white"/></clipPath></defs></symbol><symbol id="l" viewBox="0 0 24 24" fill="none"><g clip-path="url(#clip0_6_12090)"><path d="M1 21H5V9H1V21ZM23 10C23 8.9 22.1 8 21 8H14.69L15.64 3.43L15.67 3.11C15.67 2.7 15.5 2.32 15.23 2.05L14.17 1L7.59 7.59C7.22 7.95 7 8.45 7 9V19C7 20.1 7.9 21 9 21H18C18.83 21 19.54 20.5 19.84 19.78L22.86 12.73C22.95 12.5 23 12.26 23 12V10Z" fill="#323232"/></g><defs><clipPath id="clip0_6_12090"><rect width="24" height="24" fill="white"/></clipPath></defs></symbol><symbol id="m" viewBox="0 0 24 24" fill="none"><g clip-path="url(#clip0_6_12091)"><path d="M10.89 18.28L11.46 15.39C11.58 14.8 11.42 14.19 11.04 13.73C10.66 13.27 10.1 13 9.5 13H4V11.92L6.57 6H14.66C14.84 6 15 6.16 15 6.34V14.18L10.89 18.28ZM10 22L16.41 15.59C16.79 15.21 17 14.7 17 14.17V6.34C17 5.05 15.95 4 14.66 4H6.56C5.85 4 5.2 4.37 4.84 4.97L2.17 11.12C2.06 11.37 2 11.64 2 11.92V13C2 14.1 2.9 15 4 15H9.5L8.58 19.65C8.53 19.87 8.56 20.11 8.66 20.31C8.89 20.76 9.18 21.17 9.54 21.53L10 22ZM20 15H22V4H20C19.45 4 19 4.45 19 5V14C19 14.55 19.45 15 20 15Z" fill="#323232"/></g><defs><clipPath id="clip0_6_12091"><rect width="24" height="24" fill="white"/></clipPath></defs></symbol><symbol id="n" viewBox="0 0 24 24" fill="none"><g clip-path="url(#clip0_6_12092)"><path d="M15 3H6C5.17 3 4.46 3.5 4.16 4.22L1.14 11.27C1.05 11.5 1 11.74 1 12V14C1 15.1 1.9 16 3 16H9.31L8.36 20.57L8.33 20.89C8.33 21.3 8.5 21.68 8.77 21.95L9.83 23L16.42 16.41C16.78 16.05 17 15.55 17 15V5C17 3.9 16.1 3 15 3ZM19 3V15H23V3H19Z" fill="#323232"/></g><defs><clipPath id="clip0_6_12092"><rect width="24" height="24" fill="white"/></clipPath></defs></symbol><symbol id="o" viewBox="0 0 24 24" fill="none"><g clip-path="url(#clip0_6_12099)"><path d="M12 2C6.48 2 2 6.48 2 12C2 17.52 6.48 22 12 22C17.52 22 22 17.52 22 12C22 6.48 17.52 2 12 2ZM19.46 9.12L16.68 10.27C16.17 8.91 15.1 7.83 13.73 7.33L14.88 4.55C16.98 5.35 18.65 7.02 19.46 9.12ZM12 15C10.34 15 9 13.66 9 12C9 10.34 10.34 9 12 9C13.66 9 15 10.34 15 12C15 13.66 13.66 15 12 15ZM9.13 4.54L10.3 7.32C8.92 7.82 7.83 8.91 7.32 10.29L4.54 9.13C5.35 7.02 7.02 5.35 9.13 4.54ZM4.54 14.87L7.32 13.72C7.83 15.1 8.91 16.18 10.29 16.68L9.12 19.46C7.02 18.65 5.35 16.98 4.54 14.87ZM14.88 19.46L13.73 16.68C15.1 16.17 16.18 15.09 16.68 13.71L19.46 14.88C18.65 16.98 16.98 18.65 14.88 19.46Z" fill="#323232"/></g><defs><clipPath id="clip0_6_12099"><rect width="24" height="24" fill="white"/></clipPath></defs></symbol><symbol id="p" viewBox="0 0 24 24" fill="none"><g clip-path="url(#clip0_6_12103)"><path d="M14 17H4V19H14V17ZM20 9H4V11H20V9ZM4 15H20V13H4V15ZM4 5V7H20V5H4Z" fill="#323232"/></g><defs><clipPath id="clip0_6_12103"><rect width="24" height="24" fill="white"/></clipPath></defs></symbol><symbol id="q" viewBox="0 0 24 24" fill="none"><g clip-path="url(#clip0_6_12104)"><path d="M20 4H4V6H20V4ZM21 14V12L20 7H4L3 12V14H4V20H14V14H18V20H20V14H21ZM12 18H6V14H12V18Z" fill="#323232"/></g><defs><clipPath id="clip0_6_12104"><rect width="24" height="24" fill="white"/></clipPath></defs></symbol><symbol id="r" viewBox="0 0 24 24" fill="none"><g clip-path="url(#clip0_6_12105)"><path d="M19 3H4.99C3.89 3 3 3.9 3 5L3.01 19C3.01 20.1 3.9 21 5 21H15L21 15V5C21 3.9 20.1 3 19 3ZM7 8H17V10H7V8ZM12 14H7V12H12V14ZM14 19.5V14H19.5L14 19.5Z" fill="#323232"/></g><defs><clipPath id="clip0_6_12105"><rect width="24" height="24" fill="white"/></clipPath></defs></symbol><symbol id="s" viewBox="0 0 24 24" fill="none"><g clip-path="url(#clip0_6_12107)"><path d="M11.99 2C6.47 2 2 6.48 2 12C2 17.52 6.47 22 11.99 22C17.52 22 22 17.52 22 12C22 6.48 17.52 2 11.99 2ZM16.23 18L12 15.45L7.77 18L8.89 13.19L5.16 9.96L10.08 9.54L12 5L13.92 9.53L18.84 9.95L15.11 13.18L16.23 18Z" fill="#323232"/></g><defs><clipPath id="clip0_6_12107"><rect width="24" height="24" fill="white"/></clipPath></defs></symbol><symbol id="t" viewBox="0 0 24 24" fill="none"><g clip-path="url(#clip0_6_12106)"><path d="M14.43 10L12 2L9.57 10H2L8.18 14.41L5.83 22L12 17.31L18.18 22L15.83 14.41L22 10H14.43Z" fill="#323232"/></g><defs><clipPath id="clip0_6_12106"><rect width="24" height="24" fill="white"/></clipPath></defs></symbol><symbol id="u" viewBox="0 0 24 24" fill="none"><g clip-path="url(#clip0_6_12248)"><path d="M7 18C5.9 18 5.01 18.9 5.01 20C5.01 21.1 5.9 22 7 22C8.1 22 9 21.1 9 20C9 18.9 8.1 18 7 18ZM1 2V4H3L6.6 11.59L5.25 14.04C5.09 14.32 5 14.65 5 15C5 16.1 5.9 17 7 17H19V15H7.42C7.28 15 7.17 14.89 7.17 14.75L7.2 14.63L8.1 13H15.55C16.3 13 16.96 12.59 17.3 11.97L20.88 5.48C20.96 5.34 21 5.17 21 5C21 4.45 20.55 4 20 4H5.21L4.27 2H1ZM17 18C15.9 18 15.01 18.9 15.01 20C15.01 21.1 15.9 22 17 22C18.1 22 19 21.1 19 20C19 18.9 18.1 18 17 18Z" fill="#323232"/></g><defs><clipPath id="clip0_6_12248"><rect width="24" height="24" fill="white"/></clipPath></defs></symbol><symbol id="v" viewBox="0 0 24 24" fill="none"><g clip-path="url(#clip0_6_12112)"><path d="M17.21 9.00002L12.83 2.44002C12.64 2.16002 12.32 2.02002 12 2.02002C11.68 2.02002 11.36 2.16002 11.17 2.45002L6.79 9.00002H2C1.45 9.00002 1 9.45002 1 10C1 10.09 1.01 10.18 1.04 10.27L3.58 19.54C3.81 20.38 4.58 21 5.5 21H18.5C19.42 21 20.19 20.38 20.43 19.54L22.97 10.27L23 10C23 9.45002 22.55 9.00002 22 9.00002H17.21ZM9 9.00002L12 4.60002L15 9.00002H9ZM12 17C10.9 17 10 16.1 10 15C10 13.9 10.9 13 12 13C13.1 13 14 13.9 14 15C14 16.1 13.1 17 12 17Z" fill="#323232"/></g><defs><clipPath id="clip0_6_12112"><rect width="24" height="24" fill="white"/></clipPath></defs></symbol><symbol id="w" viewBox="0 0 24 24" fill="none"><g clip-path="url(#clip0_6_12114)"><path d="M18 6H16C16 3.79 14.21 2 12 2C9.79 2 8 3.79 8 6H6C4.9 6 4 6.9 4 8V20C4 21.1 4.9 22 6 22H18C19.1 22 20 21.1 20 20V8C20 6.9 19.1 6 18 6ZM10 10C10 10.55 9.55 11 9 11C8.45 11 8 10.55 8 10V8H10V10ZM12 4C13.1 4 14 4.9 14 6H10C10 4.9 10.9 4 12 4ZM16 10C16 10.55 15.55 11 15 11C14.45 11 14 10.55 14 10V8H16V10Z" fill="#323232"/></g><defs><clipPath id="clip0_6_12114"><rect width="24" height="24" fill="white"/></clipPath></defs></symbol><symbol id="x" viewBox="0 0 24 24" fill="none"><g clip-path="url(#clip0_6_12245)"><path d="M3 9H1V20C1 21.11 1.89 22 3 22H17C18.11 22 19 21.11 19 20H3V9ZM18 5V3C18 1.89 17.11 1 16 1H12C10.89 1 10 1.89 10 3V5H5V16C5 17.11 5.89 18 7 18H21C22.11 18 23 17.11 23 16V5H18ZM12 3H16V5H12V3ZM12 15V8L17.5 11L12 15Z" fill="#323232"/></g><defs><clipPath id="clip0_6_12245"><rect width="24" height="24" fill="white"/></clipPath></defs></symbol><symbol id="y" viewBox="0 0 24 24" fill="none"><g clip-path="url(#clip0_6_12350)"><path d="M16 6V4C16 2.89 15.11 2 14 2H10C8.89 2 8 2.89 8 4V6H2V19C2 20.11 2.89 21 4 21H20C21.11 21 22 20.11 22 19V6H16ZM10 4H14V6H10V4ZM9 18V9L16.5 13L9 18Z" fill="#323232"/></g><defs><clipPath id="clip0_6_12350"><rect width="24" height="24" fill="white"/></clipPath></defs></symbol><symbol id="z" viewBox="0 0 24 24" fill="none"><g clip-path="url(#clip0_6_12286)"><path d="M19.14 12.94C19.18 12.64 19.2 12.33 19.2 12C19.2 11.68 19.18 11.36 19.13 11.06L21.16 9.48002C21.34 9.34002 21.39 9.07002 21.28 8.87002L19.36 5.55002C19.24 5.33002 18.99 5.26002 18.77 5.33002L16.38 6.29002C15.88 5.91002 15.35 5.59002 14.76 5.35002L14.4 2.81002C14.36 2.57002 14.16 2.40002 13.92 2.40002H10.08C9.84 2.40002 9.65 2.57002 9.61 2.81002L9.25 5.35002C8.66 5.59002 8.12 5.92002 7.63 6.29002L5.24 5.33002C5.02 5.25002 4.77 5.33002 4.65 5.55002L2.74 8.87002C2.62 9.08002 2.66 9.34002 2.86 9.48002L4.89 11.06C4.84 11.36 4.8 11.69 4.8 12C4.8 12.31 4.82 12.64 4.87 12.94L2.84 14.52C2.66 14.66 2.61 14.93 2.72 15.13L4.64 18.45C4.76 18.67 5.01 18.74 5.23 18.67L7.62 17.71C8.12 18.09 8.65 18.41 9.24 18.65L9.6 21.19C9.65 21.43 9.84 21.6 10.08 21.6H13.92C14.16 21.6 14.36 21.43 14.39 21.19L14.75 18.65C15.34 18.41 15.88 18.09 16.37 17.71L18.76 18.67C18.98 18.75 19.23 18.67 19.35 18.45L21.27 15.13C21.39 14.91 21.34 14.66 21.15 14.52L19.14 12.94ZM12 15.6C10.02 15.6 8.4 13.98 8.4 12C8.4 10.02 10.02 8.40002 12 8.40002C13.98 8.40002 15.6 10.02 15.6 12C15.6 13.98 13.98 15.6 12 15.6Z" fill="#323232"/></g><defs><clipPath id="clip0_6_12286"><rect width="24" height="24" fill="white"/></clipPath></defs></symbol><symbol id="A" viewBox="0 0 24 24" fill="none"><g clip-path="url(#clip0_6_12203)"><path d="M15.5 14H14.71L14.43 13.73C15.41 12.59 16 11.11 16 9.5C16 5.91 13.09 3 9.50003 3C6.08003 3 3.28003 5.64 3.03003 9H5.05003C5.30003 6.75 7.18003 5 9.50003 5C11.99 5 14 7.01 14 9.5C14 11.99 11.99 14 9.50003 14C9.33003 14 9.17003 13.97 9.00003 13.95V15.97C9.17003 15.99 9.33003 16 9.50003 16C11.11 16 12.59 15.41 13.73 14.43L14 14.71V15.5L19 20.49L20.49 19L15.5 14Z" fill="#323232"/><path d="M6.47001 10.8199L4.00001 13.2899L1.53001 10.8199L0.820007 11.5299L3.29001 13.9999L0.820007 16.4699L1.53001 17.1799L4.00001 14.7099L6.47001 17.1799L7.18001 16.4699L4.71001 13.9999L7.18001 11.5299L6.47001 10.8199Z" fill="#323232"/></g><defs><clipPath id="clip0_6_12203"><rect width="24" height="24" fill="white"/></clipPath></defs></symbol><symbol id="B" viewBox="0 0 24 24" fill="none"><g clip-path="url(#clip0_6_12270)"><path d="M15.5 14H14.71L14.43 13.73C15.41 12.59 16 11.11 16 9.5C16 5.91 13.09 3 9.5 3C5.91 3 3 5.91 3 9.5C3 13.09 5.91 16 9.5 16C11.11 16 12.59 15.41 13.73 14.43L14 14.71V15.5L19 20.49L20.49 19L15.5 14ZM9.5 14C7.01 14 5 11.99 5 9.5C5 7.01 7.01 5 9.5 5C11.99 5 14 7.01 14 9.5C14 11.99 11.99 14 9.5 14Z" fill="#323232"/></g><defs><clipPath id="clip0_6_12270"><rect width="24" height="24" fill="white"/></clipPath></defs></symbol><symbol id="C" viewBox="0 0 24 24" fill="none"><g clip-path="url(#clip0_6_12205)"><path d="M16.5 12.5H15V16.5L18 18.5L18.75 17.27L16.5 15.75V12.5ZM16 9L2 3V10L11 12L2 14V21L9.27 17.89C10.09 20.83 12.79 23 16 23C19.86 23 23 19.86 23 16C23 12.14 19.86 9 16 9ZM16 21C13.25 21 11.02 18.78 11 16.03V15.96C11.02 13.22 13.25 10.99 16 10.99C18.76 10.99 21 13.23 21 15.99C21 18.75 18.76 21 16 21Z" fill="#323232"/></g><defs><clipPath id="clip0_6_12205"><rect width="24" height="24" fill="white"/></clipPath></defs></symbol><symbol id="D" viewBox="0 0 24 24" fill="none"><g clip-path="url(#clip0_6_12129)"><path d="M11.99 2C6.47 2 2 6.48 2 12C2 17.52 6.47 22 11.99 22C17.52 22 22 17.52 22 12C22 6.48 17.52 2 11.99 2ZM12 20C7.58 20 4 16.42 4 12C4 7.58 7.58 4 12 4C16.42 4 20 7.58 20 12C20 16.42 16.42 20 12 20Z" fill="#323232"/><path d="M12.5 7H11V13L16.25 16.15L17 14.92L12.5 12.25V7Z" fill="#323232"/></g><defs><clipPath id="clip0_6_12129"><rect width="24" height="24" fill="white"/></clipPath></defs></symbol><symbol id="E" viewBox="0 0 24 24" fill="none"><g clip-path="url(#clip0_6_12135)"><path d="M14 2H6C4.9 2 4 2.9 4 4V20C4 21.1 4.9 22 6 22H18C19.1 22 20 21.1 20 20V8L14 2ZM15 11H11V12H14C14.55 12 15 12.45 15 13V16C15 16.55 14.55 17 14 17H13V18H11V17H9V15H13V14H10C9.45 14 9 13.55 9 13V10C9 9.45 9.45 9 10 9H11V8H13V9H15V11Z" fill="#323232"/></g><defs><clipPath id="clip0_6_12135"><rect width="24" height="24" fill="white"/></clipPath></defs></symbol><symbol id="F" viewBox="0 0 24 24" fill="none"><g clip-path="url(#clip0_6_12137)"><path d="M3 15H21V13H3V15ZM3 19H21V17H3V19ZM3 11H21V9H3V11ZM3 5V7H21V5H3Z" fill="#323232"/></g><defs><clipPath id="clip0_6_12137"><rect width="24" height="24" fill="white"/></clipPath></defs></symbol><symbol id="G" viewBox="0 0 24 24" fill="none"><g clip-path="url(#clip0_6_12138)"><path d="M22.73 22.73L2.77 2.77002L2 2.00002L1.27 1.27002L0 2.54002L4.39 6.93002L6.6 11.59L5.25 14.04C5.09 14.32 5 14.65 5 15C5 16.1 5.9 17 7 17H14.46L15.84 18.38C15.34 18.74 15.01 19.33 15.01 20C15.01 21.1 15.9 22 17 22C17.67 22 18.26 21.67 18.62 21.16L21.46 24L22.73 22.73ZM7.42 15C7.28 15 7.17 14.89 7.17 14.75L7.2 14.63L8.1 13H10.46L12.46 15H7.42ZM15.55 13C16.3 13 16.96 12.59 17.3 11.97L20.88 5.48002C20.96 5.34002 21 5.17002 21 5.00002C21 4.45002 20.55 4.00002 20 4.00002H6.54L15.55 13ZM7 18C5.9 18 5.01 18.9 5.01 20C5.01 21.1 5.9 22 7 22C8.1 22 9 21.1 9 20C9 18.9 8.1 18 7 18Z" fill="#323232"/></g><defs><clipPath id="clip0_6_12138"><rect width="24" height="24" fill="white"/></clipPath></defs></symbol><symbol id="H" viewBox="0 0 24 24" fill="none"><g clip-path="url(#clip0_6_12139)"><path d="M1.79 12.0001L7.37 17.5901L5.96 19.0001L0.369995 13.4101L1.79 12.0001ZM2.24 4.22006L12.9 14.8901L11.62 16.1701L7.44 12.0001L6.03 13.4101L11.62 19.0001L14.31 16.3101L19.2 21.2001L20.61 19.7901L3.65 2.81006L2.24 4.22006ZM17.14 13.4901L23.62 7.00006L22.2 5.59006L15.72 12.0701L17.14 13.4901ZM17.96 7.00006L16.55 5.59006L12.9 9.25006L14.31 10.6601L17.96 7.00006Z" fill="#323232"/></g><defs><clipPath id="clip0_6_12139"><rect width="24" height="24" fill="white"/></clipPath></defs></symbol><symbol id="I" viewBox="0 0 24 24" fill="none"><g clip-path="url(#clip0_6_12140)"><path d="M20 6H17.82C17.93 5.69 18 5.35 18 5C18 3.34 16.66 2 15 2C13.95 2 13.04 2.54 12.5 3.35L12 4.02L11.5 3.34C10.96 2.54 10.05 2 9 2C7.34 2 6 3.34 6 5C6 5.35 6.07 5.69 6.18 6H4C2.89 6 2.01 6.89 2.01 8L2 19C2 20.11 2.89 21 4 21H20C21.11 21 22 20.11 22 19V8C22 6.89 21.11 6 20 6ZM15 4C15.55 4 16 4.45 16 5C16 5.55 15.55 6 15 6C14.45 6 14 5.55 14 5C14 4.45 14.45 4 15 4ZM9 4C9.55 4 10 4.45 10 5C10 5.55 9.55 6 9 6C8.45 6 8 5.55 8 5C8 4.45 8.45 4 9 4ZM20 19H4V17H20V19ZM20 14H4V8H9.08L7 10.83L8.62 12L11 8.76L12 7.4L13 8.76L15.38 12L17 10.83L14.92 8H20V14Z" fill="#323232"/></g><defs><clipPath id="clip0_6_12140"><rect width="24" height="24" fill="white"/></clipPath></defs></symbol><symbol id="J" viewBox="0 0 24 24" fill="none"><g clip-path="url(#clip0_6_12143)"><path d="M18 17H6V15H18V17ZM18 13H6V11H18V13ZM18 9H6V7H18V9ZM3 22L4.5 20.5L6 22L7.5 20.5L9 22L10.5 20.5L12 22L13.5 20.5L15 22L16.5 20.5L18 22L19.5 20.5L21 22V2L19.5 3.5L18 2L16.5 3.5L15 2L13.5 3.5L12 2L10.5 3.5L9 2L7.5 3.5L6 2L4.5 3.5L3 2V22Z" fill="#323232"/></g><defs><clipPath id="clip0_6_12143"><rect width="24" height="24" fill="white"/></clipPath></defs></symbol><symbol id="K" viewBox="0 0 24 24" fill="none"><g clip-path="url(#clip0_6_12144)"><path d="M22 4C22 2.9 21.1 2 20 2H4C2.9 2 2.01 2.9 2.01 4L2 22L6 18H15V10H22V4Z" fill="#323232"/><path d="M22.5 16H20.3L22 12H17V18H19V23L22.5 16Z" fill="#323232"/></g><defs><clipPath id="clip0_6_12144"><rect width="24" height="24" fill="white"/></clipPath></defs></symbol><symbol id="L" viewBox="0 0 24 24" fill="none"><g clip-path="url(#clip0_6_12145)"><path d="M21 6H19V15H6V17C6 17.55 6.45 18 7 18H18L22 22V7C22 6.45 21.55 6 21 6ZM17 12V3C17 2.45 16.55 2 16 2H3C2.45 2 2 2.45 2 3V17L6 13H16C16.55 13 17 12.55 17 12Z" fill="#323232"/></g><defs><clipPath id="clip0_6_12145"><rect width="24" height="24" fill="white"/></clipPath></defs></symbol><symbol id="M" viewBox="0 0 24 24" fill="none"><g clip-path="url(#clip0_6_12146)"><path d="M11.99 2C6.47 2 2 6.48 2 12C2 17.52 6.47 22 11.99 22C17.52 22 22 17.52 22 12C22 6.48 17.52 2 11.99 2ZM12 20C7.58 20 4 16.42 4 12C4 7.58 7.58 4 12 4C16.42 4 20 7.58 20 12C20 16.42 16.42 20 12 20Z" fill="#323232"/><path d="M12.5 7H11V13L16.25 16.15L17 14.92L12.5 12.25V7Z" fill="#323232"/></g><defs><clipPath id="clip0_6_12146"><rect width="24" height="24" fill="white"/></clipPath></defs></symbol><symbol id="N" viewBox="0 0 24 24" fill="none"><g clip-path="url(#clip0_6_12304)"><path d="M12 1L3 5V11C3 16.55 6.84 21.74 12 23C17.16 21.74 21 16.55 21 11V5L12 1ZM11 7H13V9H11V7ZM11 11H13V17H11V11Z" fill="#323232"/></g><defs><clipPath id="clip0_6_12304"><rect width="24" height="24" fill="white"/></clipPath></defs></symbol><symbol id="O" viewBox="0 0 24 24" fill="none"><g clip-path="url(#clip0_6_12292)"><path d="M20 4H4C2.89 4 2.01 4.89 2.01 6L2 18C2 19.11 2.89 20 4 20H20C21.11 20 22 19.11 22 18V6C22 4.89 21.11 4 20 4ZM20 18H4V12H20V18ZM20 8H4V6H20V8Z" fill="#323232"/></g><defs><clipPath id="clip0_6_12292"><rect width="24" height="24" fill="white"/></clipPath></defs></symbol><symbol id="P" viewBox="0 0 24 24" fill="none"><g clip-path="url(#clip0_6_12166)"><path d="M14 2H6C4.9 2 4.01 2.9 4.01 4L4 20C4 21.1 4.89 22 5.99 22H18C19.1 22 20 21.1 20 20V8L14 2ZM16 16H13V19H11V16H8V14H11V11H13V14H16V16ZM13 9V3.5L18.5 9H13Z" fill="#323232"/></g><defs><clipPath id="clip0_6_12166"><rect width="24" height="24" fill="white"/></clipPath></defs></symbol><symbol id="Q" viewBox="0 0 24 24" fill="none"><g clip-path="url(#clip0_6_12225)"><path d="M21.41 11.58L12.41 2.58C12.05 2.22 11.55 2 11 2H4C2.9 2 2 2.9 2 4V11C2 11.55 2.22 12.05 2.59 12.42L11.59 21.42C11.95 21.78 12.45 22 13 22C13.55 22 14.05 21.78 14.41 21.41L21.41 14.41C21.78 14.05 22 13.55 22 13C22 12.45 21.77 11.94 21.41 11.58ZM5.5 7C4.67 7 4 6.33 4 5.5C4 4.67 4.67 4 5.5 4C6.33 4 7 4.67 7 5.5C7 6.33 6.33 7 5.5 7ZM17.27 15.27L13 19.54L8.73 15.27C8.28 14.81 8 14.19 8 13.5C8 12.12 9.12 11 10.5 11C11.19 11 11.82 11.28 12.27 11.74L13 12.46L13.73 11.73C14.18 11.28 14.81 11 15.5 11C16.88 11 18 12.12 18 13.5C18 14.19 17.72 14.82 17.27 15.27Z" fill="#323232"/></g><defs><clipPath id="clip0_6_12225"><rect width="24" height="24" fill="white"/></clipPath></defs></symbol><symbol id="R" viewBox="0 0 24 24" fill="none"><g clip-path="url(#clip0_6_12235)"><path d="M12 17C13.1 17 14 16.1 14 15C14 13.9 13.1 13 12 13C10.9 13 10 13.9 10 15C10 16.1 10.9 17 12 17ZM18 8H17V6C17 3.24 14.76 1 12 1C9.24 1 7 3.24 7 6V8H6C4.9 8 4 8.9 4 10V20C4 21.1 4.9 22 6 22H18C19.1 22 20 21.1 20 20V10C20 8.9 19.1 8 18 8ZM8.9 6C8.9 4.29 10.29 2.9 12 2.9C13.71 2.9 15.1 4.29 15.1 6V8H8.9V6ZM18 20H6V10H18V20Z" fill="#323232"/></g><defs><clipPath id="clip0_6_12235"><rect width="24" height="24" fill="white"/></clipPath></defs></symbol><symbol id="S" viewBox="0 0 24 24" fill="none"><g clip-path="url(#clip0_6_12233)"><path d="M12 17C13.1 17 14 16.1 14 15C14 13.9 13.1 13 12 13C10.9 13 10 13.9 10 15C10 16.1 10.9 17 12 17ZM18 8H17V6C17 3.24 14.76 1 12 1C9.24 1 7 3.24 7 6H8.9C8.9 4.29 10.29 2.9 12 2.9C13.71 2.9 15.1 4.29 15.1 6V8H6C4.9 8 4 8.9 4 10V20C4 21.1 4.9 22 6 22H18C19.1 22 20 21.1 20 20V10C20 8.9 19.1 8 18 8ZM18 20H6V10H18V20Z" fill="#323232"/></g><defs><clipPath id="clip0_6_12233"><rect width="24" height="24" fill="white"/></clipPath></defs></symbol><symbol id="T" viewBox="0 0 24 24" fill="none"><g clip-path="url(#clip0_6_12236)"><path d="M14.5 14.2L17.4 15.9L16.6 17.2L13 15V10H14.5V14.2ZM22 14C22 18.41 18.41 22 14 22C11.98 22 10.14 21.24 8.73 20H4C2.85 20 2 19.15 2 18V9C2 7.88 2.89 7.04 4 7V6.5C4 4.01 6.01 2 8.5 2C10.84 2 12.74 3.79 12.96 6.08C13.3 6.03 13.65 6 14 6C18.41 6 22 9.59 22 14ZM6 7H11V6.26C10.88 4.99 9.8 4 8.5 4C7.12 4 6 5.12 6 6.5V7ZM20 14C20 10.69 17.31 8 14 8C10.69 8 8 10.69 8 14C8 17.31 10.69 20 14 20C17.31 20 20 17.31 20 14Z" fill="#323232"/></g><defs><clipPath id="clip0_6_12236"><rect width="24" height="24" fill="white"/></clipPath></defs></symbol><symbol id="U" viewBox="0 0 24 24" fill="none"><g clip-path="url(#clip0_6_12238)"><path d="M18 8H17V6C17 3.24 14.76 1 12 1C9.24 1 7 3.24 7 6V8H6C4.9 8 4 8.9 4 10V20C4 21.1 4.9 22 6 22H18C19.1 22 20 21.1 20 20V10C20 8.9 19.1 8 18 8ZM12 17C10.9 17 10 16.1 10 15C10 13.9 10.9 13 12 13C13.1 13 14 13.9 14 15C14 16.1 13.1 17 12 17ZM15.1 8H8.9V6C8.9 4.29 10.29 2.9 12 2.9C13.71 2.9 15.1 4.29 15.1 6V8Z" fill="#323232"/></g><defs><clipPath id="clip0_6_12238"><rect width="24" height="24" fill="white"/></clipPath></defs></symbol><symbol id="V" viewBox="0 0 24 24" fill="none"><g clip-path="url(#clip0_6_12176)"><path d="M7.5 21H2V9H7.5V21ZM14.75 3H9.25V21H14.75V3ZM22 11H16.5V21H22V11Z" fill="#323232"/></g><defs><clipPath id="clip0_6_12176"><rect width="24" height="24" fill="white"/></clipPath></defs></symbol><symbol id="W" viewBox="0 0 24 24" fill="none"><g clip-path="url(#clip0_6_12396)"><path d="M11 7H13V9H11V7ZM11 11H13V17H11V11ZM12 2C6.48 2 2 6.48 2 12C2 17.52 6.48 22 12 22C17.52 22 22 17.52 22 12C22 6.48 17.52 2 12 2ZM12 20C7.59 20 4 16.41 4 12C4 7.59 7.59 4 12 4C16.41 4 20 7.59 20 12C20 16.41 16.41 20 12 20Z" fill="#323232"/></g><defs><clipPath id="clip0_6_12396"><rect width="24" height="24" fill="white"/></clipPath></defs></symbol><symbol id="X" viewBox="0 0 24 24" fill="none"><g clip-path="url(#clip0_6_12344)"><path d="M12 2C6.48 2 2 6.48 2 12C2 17.52 6.48 22 12 22C17.52 22 22 17.52 22 12C22 6.48 17.52 2 12 2ZM13 17H11V11H13V17ZM13 9H11V7H13V9Z" fill="#323232"/></g><defs><clipPath id="clip0_6_12344"><rect width="24" height="24" fill="white"/></clipPath></defs></symbol><symbol id="Y" viewBox="0 0 24 24" fill="none"><g clip-path="url(#clip0_6_12192)"><path d="M6 2V8H6.01L6 8.01L10 12L6 16L6.01 16.01H6V22H18V16.01H17.99L18 16L14 12L18 8.01L17.99 8H18V2H6Z" fill="#323232"/></g><defs><clipPath id="clip0_6_12192"><rect width="24" height="24" fill="white"/></clipPath></defs></symbol><symbol id="Z" viewBox="0 0 24 24" fill="none"><g clip-path="url(#clip0_6_12194)"><path d="M6 2V8H6.01L6 8.01L10 12L6 16L6.01 16.01H6V22H18V16.01H17.99L18 16L14 12L18 8.01L17.99 8H18V2H6ZM16 16.5V20H8V16.5L12 12.5L16 16.5ZM12 11.5L8 7.5V4H16V7.5L12 11.5Z" fill="#323232"/></g><defs><clipPath id="clip0_6_12194"><rect width="24" height="24" fill="white"/></clipPath></defs></symbol><symbol id="ba" viewBox="0 0 24 24" fill="none"><g clip-path="url(#clip0_6_12287)"><path d="M8 4H16V7.5L13.16 10.34L14.41 11.59L18 8.01L17.99 8H18V2H6V3.17L8 5.17V4Z" fill="#323232"/><path d="M2.1 2.09998L0.690002 3.50998L9.59 12.41L6 16L6.01 16.01H6V22H18V20.83L20.49 23.32L21.9 21.91L2.1 2.09998ZM16 20H8V16.5L10.84 13.66L16 18.83V20Z" fill="#323232"/></g><defs><clipPath id="clip0_6_12287"><rect width="24" height="24" fill="white"/></clipPath></defs></symbol><symbol id="bb" viewBox="0 0 24 24" fill="none"><g clip-path="url(#clip0_6_12200)"><path d="M12 3L4 9V21H9V14H15V21H20V9L12 3Z" fill="#323232"/></g><defs><clipPath id="clip0_6_12200"><rect width="24" height="24" fill="white"/></clipPath></defs></symbol><symbol id="bc" viewBox="0 0 24 24" fill="none"><g clip-path="url(#clip0_6_12202)"><path d="M10 20V14H14V20H19V12H22L12 3L2 12H5V20H10Z" fill="#323232"/></g><defs><clipPath id="clip0_6_12202"><rect width="24" height="24" fill="white"/></clipPath></defs></symbol><symbol id="bd" viewBox="0 0 24 24" fill="none"><g clip-path="url(#clip0_6_12204)"><path d="M15.1 19.37L16.1 21.11C15.14 21.55 14.09 21.84 13 21.95V19.93C13.74 19.84 14.44 19.65 15.1 19.37ZM4.07 13H2.05C2.16 14.1 2.45 15.14 2.89 16.1L4.63 15.1C4.35 14.44 4.16 13.74 4.07 13ZM15.1 4.62999L16.1 2.88999C15.14 2.44999 14.1 2.15999 13 2.04999V4.06999C13.74 4.15999 14.44 4.34999 15.1 4.62999ZM19.93 11H21.95C21.84 9.89999 21.55 8.85999 21.11 7.89999L19.37 8.89999C19.65 9.55999 19.84 10.26 19.93 11ZM8.9 19.37L7.9 21.11C8.86 21.55 9.91 21.84 11 21.95V19.93C10.26 19.84 9.56 19.65 8.9 19.37ZM11 4.06999V2.04999C9.9 2.15999 8.86 2.44999 7.9 2.88999L8.9 4.62999C9.56 4.34999 10.26 4.15999 11 4.06999ZM18.36 7.16999L20.1 6.15999C19.47 5.28999 18.7 4.51999 17.83 3.88999L16.82 5.62999C17.41 6.07999 17.92 6.58999 18.36 7.16999ZM4.63 8.89999L2.89 7.89999C2.45 8.85999 2.16 9.89999 2.05 11H4.07C4.16 10.26 4.35 9.55999 4.63 8.89999ZM19.93 13C19.84 13.74 19.65 14.44 19.37 15.1L21.11 16.1C21.55 15.14 21.84 14.09 21.95 13H19.93ZM16.83 18.36L17.84 20.1C18.71 19.47 19.48 18.7 20.11 17.83L18.37 16.82C17.92 17.41 17.41 17.92 16.83 18.36ZM7.17 5.63999L6.17 3.88999C5.29 4.52999 4.53 5.28999 3.9 6.16999L5.64 7.17999C6.08 6.58999 6.59 6.07999 7.17 5.63999ZM5.64 16.83L3.9 17.83C4.53 18.7 5.3 19.47 6.17 20.1L7.18 18.36C6.59 17.92 6.08 17.41 5.64 16.83ZM13 6.99999H11V12.41L15.29 16.7L16.7 15.29L13 11.59V6.99999Z" fill="#323232"/></g><defs><clipPath id="clip0_6_12204"><rect width="24" height="24" fill="white"/></clipPath></defs></symbol><symbol id="be" viewBox="0 0 24 24" fill="none"><g clip-path="url(#clip0_6_12271)"><path d="M13 3C8.03 3 4 7.03 4 12H1L4.89 15.89L4.96 16.03L9 12H6C6 8.13 9.13 5 13 5C16.87 5 20 8.13 20 12C20 15.87 16.87 19 13 19C11.07 19 9.32 18.21 8.06 16.94L6.64 18.36C8.27 19.99 10.51 21 13 21C17.97 21 22 16.97 22 12C22 7.03 17.97 3 13 3ZM12 8V13L16.28 15.54L17 14.33L13.5 12.25V8H12Z" fill="#323232"/></g><defs><clipPath id="clip0_6_12271"><rect width="24" height="24" fill="white"/></clipPath></defs></symbol><symbol id="bf" viewBox="0 0 24 24" fill="none"><g clip-path="url(#clip0_6_12210)"><path d="M11 18H13V16H11V18ZM12 2C6.48 2 2 6.48 2 12C2 17.52 6.48 22 12 22C17.52 22 22 17.52 22 12C22 6.48 17.52 2 12 2ZM12 20C7.59 20 4 16.41 4 12C4 7.59 7.59 4 12 4C16.41 4 20 7.59 20 12C20 16.41 16.41 20 12 20ZM12 6C9.79 6 8 7.79 8 10H10C10 8.9 10.9 8 12 8C13.1 8 14 8.9 14 10C14 12 11 11.75 11 15H13C13 12.75 16 12.5 16 10C16 7.79 14.21 6 12 6Z" fill="#323232"/></g><defs><clipPath id="clip0_6_12210"><rect width="24" height="24" fill="white"/></clipPath></defs></symbol><symbol id="bg" viewBox="0 0 24 24" fill="none"><g clip-path="url(#clip0_6_12303)"><path d="M19 3H5C3.9 3 3 3.9 3 5V19C3 20.1 3.9 21 5 21H19C20.1 21 21 20.1 21 19V5C21 3.9 20.1 3 19 3ZM12.01 18C11.31 18 10.75 17.44 10.75 16.74C10.75 16.03 11.31 15.49 12.01 15.49C12.72 15.49 13.26 16.03 13.26 16.74C13.25 17.43 12.72 18 12.01 18ZM15.02 10.6C14.26 11.71 13.54 12.06 13.15 12.77C12.99 13.06 12.93 13.25 12.93 14.18H11.11C11.11 13.69 11.03 12.89 11.42 12.2C11.91 11.33 12.84 10.81 13.38 10.04C13.95 9.23 13.63 7.71 12.01 7.71C10.95 7.71 10.43 8.51 10.21 9.19L8.56 8.49C9.01 7.15 10.22 6 11.99 6C13.47 6 14.48 6.67 15 7.52C15.44 8.24 15.7 9.59 15.02 10.6Z" fill="#323232"/></g><defs><clipPath id="clip0_6_12303"><rect width="24" height="24" fill="white"/></clipPath></defs></symbol><symbol id="bh" viewBox="0 0 24 24" fill="none"><g clip-path="url(#clip0_6_12306)"><path d="M12 2C6.48 2 2 6.48 2 12C2 17.52 6.48 22 12 22C17.52 22 22 17.52 22 12C22 6.48 17.52 2 12 2ZM13 19H11V17H13V19ZM15.07 11.25L14.17 12.17C13.45 12.9 13 13.5 13 15H11V14.5C11 13.4 11.45 12.4 12.17 11.67L13.41 10.41C13.78 10.05 14 9.55 14 9C14 7.9 13.1 7 12 7C10.9 7 10 7.9 10 9H8C8 6.79 9.79 5 12 5C14.21 5 16 6.79 16 9C16 9.88 15.64 10.68 15.07 11.25Z" fill="#323232"/></g><defs><clipPath id="clip0_6_12306"><rect width="24" height="24" fill="white"/></clipPath></defs></symbol><symbol id="bi" viewBox="0 0 24 24" fill="none"><g clip-path="url(#clip0_6_12213)"><path d="M12 17.27L18.18 21L16.54 13.97L22 9.24L14.81 8.63L12 2L9.19 8.63L2 9.24L7.46 13.97L5.82 21L12 17.27Z" fill="#323232"/></g><defs><clipPath id="clip0_6_12213"><rect width="24" height="24" fill="white"/></clipPath></defs></symbol><symbol id="bj" viewBox="0 0 24 24" fill="none"><g clip-path="url(#clip0_6_12216)"><path d="M17.81 4.47C17.73 4.47 17.65 4.45 17.58 4.41C15.66 3.42 14 3 12.01 3C10.03 3 8.15 3.47 6.44 4.41C6.2 4.54 5.9 4.45 5.76 4.21C5.63 3.97 5.72 3.66 5.96 3.53C7.82 2.52 9.86 2 12.01 2C14.14 2 16 2.47 18.04 3.52C18.29 3.65 18.38 3.95 18.25 4.19C18.16 4.37 17.99 4.47 17.81 4.47ZM3.5 9.72C3.4 9.72 3.3 9.69 3.21 9.63C2.98 9.47 2.93 9.16 3.09 8.93C4.08 7.53 5.34 6.43 6.84 5.66C9.98 4.04 14 4.03 17.15 5.65C18.65 6.42 19.91 7.51 20.9 8.9C21.06 9.12 21.01 9.44 20.78 9.6C20.55 9.76 20.24 9.71 20.08 9.48C19.18 8.22 18.04 7.23 16.69 6.54C13.82 5.07 10.15 5.07 7.29 6.55C5.93 7.25 4.79 8.25 3.89 9.51C3.81 9.65 3.66 9.72 3.5 9.72ZM9.75 21.79C9.62 21.79 9.49 21.74 9.4 21.64C8.53 20.77 8.06 20.21 7.39 19C6.7 17.77 6.34 16.27 6.34 14.66C6.34 11.69 8.88 9.27 12 9.27C15.12 9.27 17.66 11.69 17.66 14.66C17.66 14.94 17.44 15.16 17.16 15.16C16.88 15.16 16.66 14.94 16.66 14.66C16.66 12.24 14.57 10.27 12 10.27C9.43 10.27 7.34 12.24 7.34 14.66C7.34 16.1 7.66 17.43 8.27 18.51C8.91 19.66 9.35 20.15 10.12 20.93C10.31 21.13 10.31 21.44 10.12 21.64C10.01 21.74 9.88 21.79 9.75 21.79ZM16.92 19.94C15.73 19.94 14.68 19.64 13.82 19.05C12.33 18.04 11.44 16.4 11.44 14.66C11.44 14.38 11.66 14.16 11.94 14.16C12.22 14.16 12.44 14.38 12.44 14.66C12.44 16.07 13.16 17.4 14.38 18.22C15.09 18.7 15.92 18.93 16.92 18.93C17.16 18.93 17.56 18.9 17.96 18.83C18.23 18.78 18.49 18.96 18.54 19.24C18.59 19.51 18.41 19.77 18.13 19.82C17.56 19.93 17.06 19.94 16.92 19.94ZM14.91 22C14.87 22 14.82 21.99 14.78 21.98C13.19 21.54 12.15 20.95 11.06 19.88C9.66 18.49 8.89 16.64 8.89 14.66C8.89 13.04 10.27 11.72 11.97 11.72C13.67 11.72 15.05 13.04 15.05 14.66C15.05 15.73 15.98 16.6 17.13 16.6C18.28 16.6 19.21 15.73 19.21 14.66C19.21 10.89 15.96 7.83 11.96 7.83C9.12 7.83 6.52 9.41 5.35 11.86C4.96 12.67 4.76 13.62 4.76 14.66C4.76 15.44 4.83 16.67 5.43 18.27C5.53 18.53 5.4 18.82 5.14 18.91C4.88 19.01 4.59 18.87 4.5 18.62C4.01 17.31 3.77 16.01 3.77 14.66C3.77 13.46 4 12.37 4.45 11.42C5.78 8.63 8.73 6.82 11.96 6.82C16.51 6.82 20.21 10.33 20.21 14.65C20.21 16.27 18.83 17.59 17.13 17.59C15.43 17.59 14.05 16.27 14.05 14.65C14.05 13.58 13.12 12.71 11.97 12.71C10.82 12.71 9.89 13.58 9.89 14.65C9.89 16.36 10.55 17.96 11.76 19.16C12.71 20.1 13.62 20.62 15.03 21.01C15.3 21.08 15.45 21.36 15.38 21.62C15.33 21.85 15.12 22 14.91 22Z" fill="#323232"/></g><defs><clipPath id="clip0_6_12216"><rect width="24" height="24" fill="white"/></clipPath></defs></symbol><symbol id="bk" viewBox="0 0 24 24" fill="none"><g clip-path="url(#clip0_6_12229)"><path d="M15 2H6C4.9 2 4 2.9 4 4V20C4 21.1 4.9 22 6 22H18C19.1 22 20 21.1 20 20V7L15 2ZM6 20V4H14V8H18V20H6ZM16 10V15C16 17.21 14.21 19 12 19C9.79 19 8 17.21 8 15V8.5C8 7.03 9.26 5.86 10.76 6.01C12.06 6.14 13 7.33 13 8.64V15H11V8.5C11 8.22 10.78 8 10.5 8C10.22 8 10 8.22 10 8.5V15C10 16.1 10.9 17 12 17C13.1 17 14 16.1 14 15V10H16Z" fill="#323232"/></g><defs><clipPath id="clip0_6_12229"><rect width="24" height="24" fill="white"/></clipPath></defs></symbol><symbol id="bl" viewBox="0 0 24 24" fill="none"><g clip-path="url(#clip0_6_12227)"><path d="M20 2H4C2.9 2 2.01 2.9 2.01 4L2 22L6 18H20C21.1 18 22 17.1 22 16V4C22 2.9 21.1 2 20 2ZM13 14H11V12H13V14ZM13 10H11V6H13V10Z" fill="#323232"/></g><defs><clipPath id="clip0_6_12227"><rect width="24" height="24" fill="white"/></clipPath></defs></symbol><symbol id="bm" viewBox="0 0 24 24" fill="none"><g clip-path="url(#clip0_6_12231)"><path d="M16.5 3C14.76 3 13.09 3.81 12 5.09C10.91 3.81 9.24 3 7.5 3C4.42 3 2 5.42 2 8.5C2 12.28 5.4 15.36 10.55 20.04L12 21.35L13.45 20.03C18.6 15.36 22 12.28 22 8.5C22 5.42 19.58 3 16.5 3ZM12.1 18.55L12 18.65L11.9 18.55C7.14 14.24 4 11.39 4 8.5C4 6.5 5.5 5 7.5 5C9.04 5 10.54 5.99 11.07 7.36H12.94C13.46 5.99 14.96 5 16.5 5C18.5 5 20 6.5 20 8.5C20 11.39 16.86 14.24 12.1 18.55Z" fill="#323232"/></g><defs><clipPath id="clip0_6_12231"><rect width="24" height="24" fill="white"/></clipPath></defs></symbol><symbol id="bn" viewBox="0 0 24 24" fill="none"><g clip-path="url(#clip0_6_12232)"><path d="M12 21.35L10.55 20.03C5.4 15.36 2 12.28 2 8.5C2 5.42 4.42 3 7.5 3C9.24 3 10.91 3.81 12 5.09C13.09 3.81 14.76 3 16.5 3C19.58 3 22 5.42 22 8.5C22 12.28 18.6 15.36 13.45 20.04L12 21.35Z" fill="#323232"/></g><defs><clipPath id="clip0_6_12232"><rect width="24" height="24" fill="white"/></clipPath></defs></symbol><symbol id="bo" viewBox="0 0 24 24" fill="none"><g clip-path="url(#clip0_6_12297)"><path d="M4 18V21H7V18H17V21H20V15H4V18ZM19 10H22V13H19V10ZM2 10H5V13H2V10ZM17 13H7V5C7 3.9 7.9 3 9 3H15C16.1 3 17 3.9 17 5V13Z" fill="#323232"/></g><defs><clipPath id="clip0_6_12297"><rect width="24" height="24" fill="white"/></clipPath></defs></symbol><symbol id="bp" viewBox="0 0 24 24" fill="none"><g clip-path="url(#clip0_6_12296)"><path d="M17 12H12V17H17V12ZM16 1V3H8V1H6V3H5C3.89 3 3.01 3.9 3.01 5L3 19C3 20.1 3.89 21 5 21H19C20.1 21 21 20.1 21 19V5C21 3.9 20.1 3 19 3H18V1H16ZM19 19H5V8H19V19Z" fill="#323232"/></g><defs><clipPath id="clip0_6_12296"><rect width="24" height="24" fill="white"/></clipPath></defs></symbol><symbol id="bq" viewBox="0 0 24 24" fill="none"><g clip-path="url(#clip0_6_12356)"><path d="M15 18.5C12.49 18.5 10.32 17.08 9.24 15H15V13H8.58C8.53 12.67 8.5 12.34 8.5 12C8.5 11.66 8.53 11.33 8.58 11H15V9H9.24C10.32 6.92 12.5 5.5 15 5.5C16.61 5.5 18.09 6.09 19.23 7.07L21 5.3C19.41 3.87 17.3 3 15 3C11.08 3 7.76 5.51 6.52 9H3V11H6.06C6.02 11.33 6 11.66 6 12C6 12.34 6.02 12.67 6.06 13H3V15H6.52C7.76 18.49 11.08 21 15 21C17.31 21 19.41 20.13 21 18.7L19.22 16.93C18.09 17.91 16.62 18.5 15 18.5Z" fill="#323232"/></g><defs><clipPath id="clip0_6_12356"><rect width="24" height="24" fill="white"/></clipPath></defs></symbol><symbol id="br" viewBox="0 0 24 24" fill="none"><g clip-path="url(#clip0_6_12249)"><path d="M12.126 8.125L14.063 6.188L17.81 9.935L15.873 11.873L12.126 8.125ZM20.71 5.63L18.37 3.29C18.1826 3.10375 17.9292 2.99921 17.665 2.99921C17.4008 2.99921 17.1474 3.10375 16.96 3.29L15.13 5.12L18.88 8.87L20.71 7C20.8844 6.81454 20.9815 6.56956 20.9815 6.315C20.9815 6.06044 20.8844 5.81546 20.71 5.63ZM2 5L8.63 11.63L3 17.25V21H6.75L12.38 15.38L18 21L20 19L4 3L2 5Z" fill="#323232"/></g><defs><clipPath id="clip0_6_12249"><rect width="24" height="24" fill="white"/></clipPath></defs></symbol><symbol id="bs" viewBox="0 0 24 24" fill="none"><g clip-path="url(#clip0_6_12411)"><path d="M11 9.16V2C6 2.5 2 6.79 2 12C2 17.21 6 21.5 11 22V14.84C10 14.43 9 13.32 9 12C9 10.68 10 9.57 11 9.16ZM14.86 11H22C21.52 6.25 18 2.47 13 2V9.16C14 9.46 14.52 10.14 14.86 11ZM13 14.84V22C18 21.53 21.52 17.75 22 13H14.86C14.52 13.86 14 14.54 13 14.84Z" fill="#323232"/></g><defs><clipPath id="clip0_6_12411"><rect width="24" height="24" fill="white"/></clipPath></defs></symbol><symbol id="bt" viewBox="0 0 24 24" fill="none"><g clip-path="url(#clip0_6_12252)"><path d="M11 5.08V2C6 2.5 2 6.81 2 12C2 17.19 6 21.5 11 22V18.92C8 18.44 5 15.52 5 12C5 8.48 8 5.56 11 5.08ZM18.97 11H22C21.53 6 18 2.47 13 2V5.08C16 5.51 18.54 8 18.97 11ZM13 18.92V22C18 21.53 21.53 18 22 13H18.97C18.54 16 16 18.49 13 18.92Z" fill="#323232"/></g><defs><clipPath id="clip0_6_12252"><rect width="24" height="24" fill="white"/></clipPath></defs></symbol><symbol id="bu" viewBox="0 0 24 24" fill="none"><g clip-path="url(#clip0_6_12254)"><path d="M19.77 5.03001L21.17 6.43001L8.43 19.17L2.83 13.57L4.23 12.17L8.43 16.37L19.77 5.03001ZM19.77 2.20001L8.43 13.54L4.23 9.34001L0 13.57L8.43 22L24 6.43001L19.77 2.20001Z" fill="#323232"/></g><defs><clipPath id="clip0_6_12254"><rect width="24" height="24" fill="white"/></clipPath></defs></symbol><symbol id="bv" viewBox="0 0 24 24" fill="none"><g clip-path="url(#clip0_6_12258)"><path d="M18 7.00003L16.59 5.59003L10.25 11.93L11.66 13.34L18 7.00003ZM22.24 5.59003L11.66 16.17L7.48 12L6.07 13.41L11.66 19L23.66 7.00003L22.24 5.59003ZM0.410004 13.41L6 19L7.41 17.59L1.83 12L0.410004 13.41Z" fill="#323232"/></g><defs><clipPath id="clip0_6_12258"><rect width="24" height="24" fill="white"/></clipPath></defs></symbol><symbol id="bw" viewBox="0 0 24 24" fill="none"><g clip-path="url(#clip0_6_12260)"><path d="M8.99999 16.2L4.79999 12L3.39999 13.4L8.99999 19L21 6.99998L19.6 5.59998L8.99999 16.2Z" fill="#323232"/></g><defs><clipPath id="clip0_6_12260"><rect width="24" height="24" fill="white"/></clipPath></defs></symbol><symbol id="bx" viewBox="0 0 24 24" fill="none"><g clip-path="url(#clip0_6_12256)"><path d="M14 2H6C4.9 2 4.01 2.9 4.01 4L4 20C4 21.1 4.89 22 5.99 22H18C19.1 22 20 21.1 20 20V8L14 2ZM16 18H8V16H16V18ZM16 14H8V12H16V14ZM13 9V3.5L18.5 9H13Z" fill="#323232"/></g><defs><clipPath id="clip0_6_12256"><rect width="24" height="24" fill="white"/></clipPath></defs></symbol><symbol id="by" viewBox="0 0 24 24" fill="none"><g clip-path="url(#clip0_6_12257)"><path d="M6 19C6 20.1 6.9 21 8 21H16C17.1 21 18 20.1 18 19V7H6V19ZM8 9H16V19H8V9ZM15.5 4L14.5 3H9.5L8.5 4H5V6H19V4H15.5Z" fill="#323232"/></g><defs><clipPath id="clip0_6_12257"><rect width="24" height="24" fill="white"/></clipPath></defs></symbol><symbol id="bz" viewBox="0 0 24 24" fill="none"><g clip-path="url(#clip0_6_12267)"><path d="M6 19C6 20.1 6.9 21 8 21H16C17.1 21 18 20.1 18 19V7H6V19ZM8.46 11.88L9.87 10.47L12 12.59L14.12 10.47L15.53 11.88L13.41 14L15.53 16.12L14.12 17.53L12 15.41L9.88 17.53L8.47 16.12L10.59 14L8.46 11.88ZM15.5 4L14.5 3H9.5L8.5 4H5V6H19V4H15.5Z" fill="#323232"/></g><defs><clipPath id="clip0_6_12267"><rect width="24" height="24" fill="white"/></clipPath></defs></symbol><symbol id="bA" viewBox="0 0 24 24" fill="none"><g clip-path="url(#clip0_6_12293)"><path d="M6 19C6 20.1 6.9 21 8 21H16C17.1 21 18 20.1 18 19V7H6V19ZM19 4H15.5L14.5 3H9.5L8.5 4H5V6H19V4Z" fill="#323232"/></g><defs><clipPath id="clip0_6_12293"><rect width="24" height="24" fill="white"/></clipPath></defs></symbol><symbol id="bB" viewBox="0 0 24 24" fill="none"><g clip-path="url(#clip0_6_12294)"><path d="M9 11H7V13H9V11ZM13 11H11V13H13V11ZM17 11H15V13H17V11ZM19 4H18V2H16V4H8V2H6V4H5C3.89 4 3.01 4.9 3.01 6L3 20C3 21.1 3.89 22 5 22H19C20.1 22 21 21.1 21 20V6C21 4.9 20.1 4 19 4ZM19 20H5V9H19V20Z" fill="#323232"/></g><defs><clipPath id="clip0_6_12294"><rect width="24" height="24" fill="white"/></clipPath></defs></symbol><symbol id="bC" viewBox="0 0 24 24" fill="none"><g clip-path="url(#clip0_6_12259)"><path d="M3 13H11V3H3V13ZM3 21H11V15H3V21ZM13 21H21V11H13V21ZM13 3V9H21V3H13Z" fill="#323232"/></g><defs><clipPath id="clip0_6_12259"><rect width="24" height="24" fill="white"/></clipPath></defs></symbol><symbol id="bD" viewBox="0 0 24 24" fill="none"><g clip-path="url(#clip0_6_12263)"><path d="M20 4H4C2.89 4 2.01 4.89 2.01 6L2 18C2 19.11 2.89 20 4 20H20C21.11 20 22 19.11 22 18V6C22 4.89 21.11 4 20 4ZM20 18H4V12H20V18ZM20 8H4V6H20V8Z" fill="#323232"/></g><defs><clipPath id="clip0_6_12263"><rect width="24" height="24" fill="white"/></clipPath></defs></symbol><symbol id="bE" viewBox="0 0 24 24" fill="none"><g clip-path="url(#clip0_6_12265)"><path d="M11.5 2C6.81 2 3 5.81 3 10.5C3 15.19 6.81 19 11.5 19H12V22C16.86 19.66 20 15 20 10.5C20 5.81 16.19 2 11.5 2ZM12.5 16.5H10.5V14.5H12.5V16.5ZM12.5 13H10.5C10.5 9.75 13.5 10 13.5 8C13.5 6.9 12.6 6 11.5 6C10.4 6 9.5 6.9 9.5 8H7.5C7.5 5.79 9.29 4 11.5 4C13.71 4 15.5 5.79 15.5 8C15.5 10.5 12.5 10.75 12.5 13Z" fill="#323232"/></g><defs><clipPath id="clip0_6_12265"><rect width="24" height="24" fill="white"/></clipPath></defs></symbol><symbol id="bF" viewBox="0 0 24 24" fill="none"><g clip-path="url(#clip0_6_12269)"><path d="M14 2H6C4.9 2 4 2.9 4 4V20C4 21.1 4.9 22 6 22H18C19.1 22 20 21.1 20 20V8L14 2ZM12 10C13.1 10 14 10.9 14 12C14 13.1 13.1 14 12 14C10.9 14 10 13.1 10 12C10 10.9 10.9 10 12 10ZM16 18H8V17.43C8 16.62 8.48 15.9 9.22 15.58C10.07 15.21 11.01 15 12 15C12.99 15 13.93 15.21 14.78 15.58C15.52 15.9 16 16.62 16 17.43V18Z" fill="#323232"/></g><defs><clipPath id="clip0_6_12269"><rect width="24" height="24" fill="white"/></clipPath></defs></symbol><symbol id="bG" viewBox="0 0 24 24" fill="none"><g clip-path="url(#clip0_6_12368)"><path d="M20 2H4C2.9 2 2 2.9 2 4V22L6 18H20C21.1 18 22 17.1 22 16V4C22 2.9 21.1 2 20 2ZM19 13L16.5 11.5L14 13V5H19V13Z" fill="#323232"/></g><defs><clipPath id="clip0_6_12368"><rect width="24" height="24" fill="white"/></clipPath></defs></symbol><symbol id="bH" viewBox="0 0 24 24" fill="none"><g clip-path="url(#clip0_6_12383)"><path d="M13 12H20V13.5H13V12ZM13 9.5H20V11H13V9.5ZM13 14.5H20V16H13V14.5ZM21 4H3C1.9 4 1 4.9 1 6V19C1 20.1 1.9 21 3 21H21C22.1 21 23 20.1 23 19V6C23 4.9 22.1 4 21 4ZM21 19H12V6H21V19Z" fill="#323232"/></g><defs><clipPath id="clip0_6_12383"><rect width="24" height="24" fill="white"/></clipPath></defs></symbol><symbol id="bI" viewBox="0 0 24 24" fill="none"><g clip-path="url(#clip0_6_12282)"><path d="M20 6H17V4C17 2.89 16.11 2 15 2H9C7.89 2 7 2.89 7 4V6H4C2.89 6 2 6.89 2 8V19C2 20.11 2.89 21 4 21H20C21.11 21 22 20.11 22 19V8C22 6.89 21.11 6 20 6ZM9 4H15V6H9V4ZM20 19H4V17H20V19ZM20 14H4V8H7V10H9V8H15V10H17V8H20V14Z" fill="#323232"/></g><defs><clipPath id="clip0_6_12282"><rect width="24" height="24" fill="white"/></clipPath></defs></symbol><symbol id="bJ" viewBox="0 0 24 24" fill="none"><g clip-path="url(#clip0_6_12284)"><path d="M20 2H4C2.89 2 2 2.89 2 4V15C2 16.11 2.89 17 4 17H8V22L12 20L16 22V17H20C21.11 17 22 16.11 22 15V4C22 2.89 21.11 2 20 2ZM20 15H4V13H20V15ZM20 10H4V4H20V10Z" fill="#323232"/></g><defs><clipPath id="clip0_6_12284"><rect width="24" height="24" fill="white"/></clipPath></defs></symbol><symbol id="bK" viewBox="0 0 24 24" fill="none"><g clip-path="url(#clip0_6_12289)"><path d="M20 6H17.82C17.93 5.69 18 5.35 18 5C18 3.34 16.66 2 15 2C13.95 2 13.04 2.54 12.5 3.35L12 4.02L11.5 3.34C10.96 2.54 10.05 2 9 2C7.34 2 6 3.34 6 5C6 5.35 6.07 5.69 6.18 6H4C2.89 6 2.01 6.89 2.01 8L2 19C2 20.11 2.89 21 4 21H20C21.11 21 22 20.11 22 19V8C22 6.89 21.11 6 20 6ZM15 4C15.55 4 16 4.45 16 5C16 5.55 15.55 6 15 6C14.45 6 14 5.55 14 5C14 4.45 14.45 4 15 4ZM9 4C9.55 4 10 4.45 10 5C10 5.55 9.55 6 9 6C8.45 6 8 5.55 8 5C8 4.45 8.45 4 9 4ZM20 19H4V17H20V19ZM20 14H4V8H9.08L7 10.83L8.62 12L11 8.76L12 7.4L13 8.76L15.38 12L17 10.83L14.92 8H20V14Z" fill="#323232"/></g><defs><clipPath id="clip0_6_12289"><rect width="24" height="24" fill="white"/></clipPath></defs></symbol><symbol id="bL" viewBox="0 0 24 24" fill="none"><g clip-path="url(#clip0_6_12295)"><path d="M3 17H21V19H3V17ZM3 10H21V15H3V10ZM3 6H21V8H3V6Z" fill="#323232"/></g><defs><clipPath id="clip0_6_12295"><rect width="24" height="24" fill="white"/></clipPath></defs></symbol><symbol id="bM" viewBox="0 0 24 24" fill="none"><g clip-path="url(#clip0_6_12300)"><path d="M20 3H19V1H17V3H7V1H5V3H4C2.9 3 2 3.9 2 5V21C2 22.1 2.9 23 4 23H20C21.1 23 22 22.1 22 21V5C22 3.9 21.1 3 20 3ZM20 21H4V8H20V21Z" fill="#323232"/></g><defs><clipPath id="clip0_6_12300"><rect width="24" height="24" fill="white"/></clipPath></defs></symbol><symbol id="bN" viewBox="0 0 24 24" fill="none"><g clip-path="url(#clip0_6_12369)"><path d="M19 18L21 19V3C21 1.9 20.1 1 19 1H8.99C7.89 1 7 1.9 7 3H17C18.1 3 19 3.9 19 5V18ZM15 5H5C3.9 5 3 5.9 3 7V23L10 20L17 23V7C17 5.9 16.1 5 15 5Z" fill="#323232"/></g><defs><clipPath id="clip0_6_12369"><rect width="24" height="24" fill="white"/></clipPath></defs></symbol><symbol id="bO" viewBox="0 0 24 24" fill="none"><g clip-path="url(#clip0_6_12362)"><path d="M17 3H7C5.9 3 5.01 3.9 5.01 5L5 21L12 18L19 21V5C19 3.9 18.1 3 17 3ZM17 18L12 15.82L7 18V5H17V18Z" fill="#323232"/></g><defs><clipPath id="clip0_6_12362"><rect width="24" height="24" fill="white"/></clipPath></defs></symbol><symbol id="bP" viewBox="0 0 24 24" fill="none"><g clip-path="url(#clip0_6_12373)"><path d="M17 3H7C5.9 3 5.01 3.9 5.01 5L5 21L12 18L19 21V5C19 3.9 18.1 3 17 3Z" fill="#323232"/></g><defs><clipPath id="clip0_6_12373"><rect width="24" height="24" fill="white"/></clipPath></defs></symbol><symbol id="bQ" viewBox="0 0 24 24" fill="none"><g clip-path="url(#clip0_6_12367)"><path d="M17 1H7C5.9 1 5 1.9 5 3V21C5 22.1 5.9 23 7 23H17C18.1 23 19 22.1 19 21V3C19 1.9 18.1 1 17 1ZM7 18V6H17V18H7ZM16 11V9.14C16 8.51 15.55 8 15 8H9C8.45 8 8 8.51 8 9.14V11.1C8.55 11.1 9 11.55 9 12.1C9 12.65 8.55 13.1 8 13.1V14.86C8 15.49 8.45 16 9 16H15C15.55 16 16 15.49 16 14.86V13C15.45 13 15 12.55 15 12C15 11.45 15.45 11 16 11ZM12.5 14.5H11.5V13.5H12.5V14.5ZM12.5 12.5H11.5V11.5H12.5V12.5ZM12.5 10.5H11.5V9.5H12.5V10.5Z" fill="#323232"/></g><defs><clipPath id="clip0_6_12367"><rect width="24" height="24" fill="white"/></clipPath></defs></symbol><symbol id="bR" viewBox="0 0 24 24" fill="none"><g clip-path="url(#clip0_6_12378)"><path d="M18 2H6C4.9 2 4 2.9 4 4V20C4 21.1 4.9 22 6 22H18C19.1 22 20 21.1 20 20V4C20 2.9 19.1 2 18 2ZM6 4H11V12L8.5 10.5L6 12V4Z" fill="#323232"/></g><defs><clipPath id="clip0_6_12378"><rect width="24" height="24" fill="white"/></clipPath></defs></symbol><symbol id="bS" viewBox="0 0 24 24" fill="none"><g clip-path="url(#clip0_6_12316)"><path d="M19 3H14.82C14.4 1.84 13.3 1 12 1C10.7 1 9.6 1.84 9.18 3H5C3.9 3 3 3.9 3 5V19C3 20.1 3.9 21 5 21H19C20.1 21 21 20.1 21 19V5C21 3.9 20.1 3 19 3ZM12 3C12.55 3 13 3.45 13 4C13 4.55 12.55 5 12 5C11.45 5 11 4.55 11 4C11 3.45 11.45 3 12 3ZM10 17L6 13L7.41 11.59L10 14.17L16.59 7.58L18 9L10 17Z" fill="#323232"/></g><defs><clipPath id="clip0_6_12316"><rect width="24" height="24" fill="white"/></clipPath></defs></symbol><symbol id="bT" viewBox="0 0 24 24" fill="none"><g clip-path="url(#clip0_6_12318)"><path d="M19 3H14.82C14.4 1.84 13.3 1 12 1C10.7 1 9.6 1.84 9.18 3H5C3.9 3 3 3.9 3 5V19C3 20.1 3.9 21 5 21H19C20.1 21 21 20.1 21 19V5C21 3.9 20.1 3 19 3ZM12 3C12.55 3 13 3.45 13 4C13 4.55 12.55 5 12 5C11.45 5 11 4.55 11 4C11 3.45 11.45 3 12 3ZM12 18L7 13H10V9H14V13H17L12 18Z" fill="#323232"/></g><defs><clipPath id="clip0_6_12318"><rect width="24" height="24" fill="white"/></clipPath></defs></symbol><symbol id="bU" viewBox="0 0 24 24" fill="none"><g clip-path="url(#clip0_6_12322)"><path d="M19 3H14.82C14.4 1.84 13.3 1 12 1C10.7 1 9.6 1.84 9.18 3H5C3.9 3 3 3.9 3 5V19C3 20.1 3.9 21 5 21H19C20.1 21 21 20.1 21 19V5C21 3.9 20.1 3 19 3ZM12 3C12.55 3 13 3.45 13 4C13 4.55 12.55 5 12 5C11.45 5 11 4.55 11 4C11 3.45 11.45 3 12 3ZM16 15H12V18L7 13L12 8V11H16V15Z" fill="#323232"/></g><defs><clipPath id="clip0_6_12322"><rect width="24" height="24" fill="white"/></clipPath></defs></symbol><symbol id="bV" viewBox="0 0 24 24" fill="none"><g clip-path="url(#clip0_6_12327)"><path d="M19 3H14.82C14.4 1.84 13.3 1 12 1C10.7 1 9.6 1.84 9.18 3H5C3.9 3 3 3.9 3 5V19C3 20.1 3.9 21 5 21H19C20.1 21 21 20.1 21 19V5C21 3.9 20.1 3 19 3ZM13 18H11V16H13V18ZM13 14H11V8H13V14ZM12 5C11.45 5 11 4.55 11 4C11 3.45 11.45 3 12 3C12.55 3 13 3.45 13 4C13 4.55 12.55 5 12 5Z" fill="#323232"/></g><defs><clipPath id="clip0_6_12327"><rect width="24" height="24" fill="white"/></clipPath></defs></symbol><symbol id="bW" viewBox="0 0 24 24" fill="none"><g clip-path="url(#clip0_6_12332)"><path d="M19 3H14.82C14.4 1.84 13.3 1 12 1C10.7 1 9.6 1.84 9.18 3H5C3.9 3 3 3.9 3 5V19C3 20.1 3.9 21 5 21H19C20.1 21 21 20.1 21 19V5C21 3.9 20.1 3 19 3ZM12 3C12.55 3 13 3.45 13 4C13 4.55 12.55 5 12 5C11.45 5 11 4.55 11 4C11 3.45 11.45 3 12 3ZM14 17H7V15H14V17ZM17 13H7V11H17V13ZM17 9H7V7H17V9Z" fill="#323232"/></g><defs><clipPath id="clip0_6_12332"><rect width="24" height="24" fill="white"/></clipPath></defs></symbol><symbol id="bX" viewBox="0 0 24 24" fill="none"><g clip-path="url(#clip0_6_12386)"><path d="M19 3H5C3.9 3 3 3.9 3 5V19C3 20.1 3.9 21 5 21H19C20.1 21 21 20.1 21 19V5C21 3.9 20.1 3 19 3ZM9 17H7V10H9V17ZM13 17H11V7H13V17ZM17 17H15V13H17V17Z" fill="#323232"/></g><defs><clipPath id="clip0_6_12386"><rect width="24" height="24" fill="white"/></clipPath></defs></symbol><symbol id="bY" viewBox="0 0 24 24" fill="none"><g clip-path="url(#clip0_6_12394)"><path d="M19 3H5C3.9 3 3 3.9 3 5V19C3 20.1 3.9 21 5 21H19C20.1 21 21 20.1 21 19V5C21 3.9 20.1 3 19 3ZM14 17H7V15H14V17ZM17 13H7V11H17V13ZM17 9H7V7H17V9Z" fill="#323232"/></g><defs><clipPath id="clip0_6_12394"><rect width="24" height="24" fill="white"/></clipPath></defs></symbol><symbol id="bZ" viewBox="0 0 24 24" fill="none"><g clip-path="url(#clip0_6_12348)"><path d="M20 2H4C2.9 2 2.01 2.9 2.01 4L2 22L6 18H20C21.1 18 22 17.1 22 16V4C22 2.9 21.1 2 20 2ZM13 11H11V5H13V11ZM13 15H11V13H13V15Z" fill="#323232"/></g><defs><clipPath id="clip0_6_12348"><rect width="24" height="24" fill="white"/></clipPath></defs></symbol><symbol id="ca" viewBox="0 0 24 24" fill="none"><g clip-path="url(#clip0_6_12405)"><path d="M19 3H5C3.9 3 3 3.9 3 5V19C3 20.1 3.9 21 5 21H19C20.1 21 21 20.1 21 19V5C21 3.9 20.1 3 19 3ZM9 17H7V12H9V17ZM13 17H11V14H13V17ZM13 12H11V10H13V12ZM17 17H15V7H17V17Z" fill="#323232"/></g><defs><clipPath id="clip0_6_12405"><rect width="24" height="24" fill="white"/></clipPath></defs></symbol><symbol id="cb" viewBox="0 0 24 24" fill="none"><g clip-path="url(#clip0_6_12365)"><path d="M22 5.72L17.4 1.86L16.11 3.39L20.71 7.25L22 5.72ZM7.88 3.39L6.6 1.86L2 5.71L3.29 7.24L7.88 3.39ZM12 4C7.03 4 3 8.03 3 13C3 17.97 7.02 22 12 22C16.97 22 21 17.97 21 13C21 8.03 16.97 4 12 4ZM12 20C8.13 20 5 16.87 5 13C5 9.13 8.13 6 12 6C15.87 6 19 9.13 19 13C19 16.87 15.87 20 12 20ZM10.54 14.53L8.41 12.4L7.35 13.46L10.53 16.64L16.53 10.64L15.47 9.58L10.54 14.53Z" fill="#323232"/></g><defs><clipPath id="clip0_6_12365"><rect width="24" height="24" fill="white"/></clipPath></defs></symbol><symbol id="cc" viewBox="0 0 24 24" fill="none"><g clip-path="url(#clip0_6_12372)"><path d="M12 6C15.87 6 19 9.13 19 13C19 13.84 18.84 14.65 18.57 15.4L20.09 16.92C20.67 15.73 21 14.41 21 13C21 8.03 16.97 4 12 4C10.59 4 9.26999 4.33 8.07999 4.91L9.59999 6.43C10.35 6.16 11.16 6 12 6ZM22 5.72L17.4 1.86L16.11 3.39L20.71 7.25L22 5.72ZM2.91999 2.29L1.64999 3.57L2.97999 4.9L1.86999 5.83L3.28999 7.25L4.39999 6.31L5.19999 7.11C3.82999 8.69 2.99999 10.75 2.99999 13C2.99999 17.97 7.01999 22 12 22C14.25 22 16.31 21.17 17.89 19.8L20.09 22L21.36 20.73L3.88999 3.27L2.91999 2.29ZM16.47 18.39C15.26 19.39 13.7 20 12 20C8.12999 20 4.99999 16.87 4.99999 13C4.99999 11.3 5.60999 9.74 6.60999 8.53L16.47 18.39ZM8.01999 3.28L6.59999 1.86L5.73999 2.57L7.15999 3.99L8.01999 3.28Z" fill="#323232"/></g><defs><clipPath id="clip0_6_12372"><rect width="24" height="24" fill="white"/></clipPath></defs></symbol><symbol id="cd" viewBox="0 0 24 24" fill="none"><g clip-path="url(#clip0_6_12377)"><path d="M7.88 3.39L6.6 1.86L2 5.71L3.29 7.24L7.88 3.39ZM22 5.72L17.4 1.86L16.11 3.39L20.71 7.25L22 5.72ZM12 4C7.03 4 3 8.03 3 13C3 17.97 7.02 22 12 22C16.97 22 21 17.97 21 13C21 8.03 16.97 4 12 4ZM12 20C8.13 20 5 16.87 5 13C5 9.13 8.13 6 12 6C15.87 6 19 9.13 19 13C19 16.87 15.87 20 12 20ZM13 9H11V12H8V14H11V17H13V14H16V12H13V9Z" fill="#323232"/></g><defs><clipPath id="clip0_6_12377"><rect width="24" height="24" fill="white"/></clipPath></defs></symbol><symbol id="ce" viewBox="0 0 24 24" fill="none"><g clip-path="url(#clip0_6_12381)"><path d="M22 5.72L17.4 1.86L16.11 3.39L20.71 7.25L22 5.72ZM7.88 3.39L6.6 1.86L2 5.71L3.29 7.24L7.88 3.39ZM12.5 8H11V14L15.75 16.85L16.5 15.62L12.5 13.25V8ZM12 4C7.03 4 3 8.03 3 13C3 17.97 7.02 22 12 22C16.97 22 21 17.97 21 13C21 8.03 16.97 4 12 4ZM12 20C8.13 20 5 16.87 5 13C5 9.13 8.13 6 12 6C15.87 6 19 9.13 19 13C19 16.87 15.87 20 12 20Z" fill="#323232"/></g><defs><clipPath id="clip0_6_12381"><rect width="24" height="24" fill="white"/></clipPath></defs></symbol><symbol id="cf" viewBox="0 0 24 24" fill="none"><g clip-path="url(#clip0_6_12325)"><path d="M17 11C17.34 11 17.67 11.04 18 11.09V6.27L10.5 3L3 6.27V11.18C3 15.72 6.2 19.97 10.5 21C11.05 20.87 11.58 20.68 12.1 20.45C11.41 19.47 11 18.28 11 17C11 13.69 13.69 11 17 11Z" fill="#323232"/><path d="M17 13C14.79 13 13 14.79 13 17C13 19.21 14.79 21 17 21C19.21 21 21 19.21 21 17C21 14.79 19.21 13 17 13ZM17 14.38C17.62 14.38 18.12 14.89 18.12 15.5C18.12 16.11 17.61 16.62 17 16.62C16.39 16.62 15.88 16.11 15.88 15.5C15.88 14.89 16.38 14.38 17 14.38ZM17 19.75C16.07 19.75 15.26 19.29 14.76 18.58C14.81 17.86 16.27 17.5 17 17.5C17.73 17.5 19.19 17.86 19.24 18.58C18.74 19.29 17.93 19.75 17 19.75Z" fill="#323232"/></g><defs><clipPath id="clip0_6_12325"><rect width="24" height="24" fill="white"/></clipPath></defs></symbol><symbol id="cg" viewBox="0 0 24 24" fill="none"><g clip-path="url(#clip0_6_12388)"><path d="M22 5V7H19V10H17V7H14V5H17V2H19V5H22ZM19 19H5V5H11V3H5C3.9 3 3 3.9 3 5V19C3 20.1 3.9 21 5 21H19C20.1 21 21 20.1 21 19V13H19V19ZM15 13V17H17V13H15ZM11 17H13V9H11V17ZM9 17V11H7V17H9Z" fill="#323232"/></g><defs><clipPath id="clip0_6_12388"><rect width="24" height="24" fill="white"/></clipPath></defs></symbol><symbol id="ch" viewBox="0 0 24 24" fill="none"><g clip-path="url(#clip0_6_12387)"><path d="M22 5.18L10.59 16.6L6.35 12.36L7.76 10.95L10.59 13.78L20.59 3.78L22 5.18ZM12 20C7.59 20 4 16.41 4 12C4 7.59 7.59 4 12 4C13.57 4 15.04 4.46 16.28 5.25L17.73 3.8C16.1 2.67 14.13 2 12 2C6.48 2 2 6.48 2 12C2 17.52 6.48 22 12 22C13.73 22 15.36 21.56 16.78 20.78L15.28 19.28C14.28 19.74 13.17 20 12 20ZM19 15H16V17H19V20H21V17H24V15H21V12H19V15Z" fill="#323232"/></g><defs><clipPath id="clip0_6_12387"><rect width="24" height="24" fill="white"/></clipPath></defs></symbol><symbol id="ci" viewBox="0 0 24 24" fill="none"><g clip-path="url(#clip0_6_12384)"><path d="M11 9H13V6H16V4H13V1H11V4H8V6H11V9ZM7 18C5.9 18 5.01 18.9 5.01 20C5.01 21.1 5.9 22 7 22C8.1 22 9 21.1 9 20C9 18.9 8.1 18 7 18ZM17 18C15.9 18 15.01 18.9 15.01 20C15.01 21.1 15.9 22 17 22C18.1 22 19 21.1 19 20C19 18.9 18.1 18 17 18ZM7.17 14.75L7.2 14.63L8.1 13H15.55C16.3 13 16.96 12.59 17.3 11.97L21.16 4.96L19.42 4H19.41L18.31 6L15.55 11H8.53L8.4 10.73L6.16 6L5.21 4L4.27 2H1V4H3L6.6 11.59L5.25 14.04C5.09 14.32 5 14.65 5 15C5 16.1 5.9 17 7 17H19V15H7.42C7.29 15 7.17 14.89 7.17 14.75Z" fill="#323232"/></g><defs><clipPath id="clip0_6_12384"><rect width="24" height="24" fill="white"/></clipPath></defs></symbol><symbol id="cj" viewBox="0 0 24 24" fill="none"><g clip-path="url(#clip0_6_12412)"><path d="M21 18V19C21 20.1 20.1 21 19 21H5C3.89 21 3 20.1 3 19V5C3 3.9 3.89 3 5 3H19C20.1 3 21 3.9 21 5V6H12C10.89 6 10 6.9 10 8V16C10 17.1 10.89 18 12 18H21ZM12 16H22V8H12V16ZM16 13.5C15.17 13.5 14.5 12.83 14.5 12C14.5 11.17 15.17 10.5 16 10.5C16.83 10.5 17.5 11.17 17.5 12C17.5 12.83 16.83 13.5 16 13.5Z" fill="#323232"/></g><defs><clipPath id="clip0_6_12412"><rect width="24" height="24" fill="white"/></clipPath></defs></symbol><symbol id="ck" viewBox="0 0 24 24" fill="none"><g clip-path="url(#clip0_6_12330)"><path d="M7 10H4V17H7V10Z" fill="#323232"/><path d="M13.5 10H10.5V17H13.5V10Z" fill="#323232"/><path d="M22 19H2V22H22V19Z" fill="#323232"/><path d="M20 10H17V17H20V10Z" fill="#323232"/><path d="M12 1L2 6V8H22V6L12 1Z" fill="#323232"/></g><defs><clipPath id="clip0_6_12330"><rect width="24" height="24" fill="white"/></clipPath></defs></symbol></svg>