<svg width="24" height="24" viewBox="0 0 24 24" fill="none" xmlns="http://www.w3.org/2000/svg">
<g clip-path="url(#clip0_6_12331)">
<path d="M7.70999 3.52L1.14999 15L4.56999 20.99L11.13 9.52L7.70999 3.52ZM13.35 15H9.72999L6.29999 21H14.54C13.58 19.94 13 18.54 13 17C13 16.3 13.13 15.63 13.35 15ZM20 16V13H18V16H15V18H18V21H20V18H23V16H20ZM20.71 11.25L15.42 2H8.57999V2.01L14.73 12.78C15.82 11.68 17.33 11 19 11C19.59 11 20.17 11.09 20.71 11.25Z" fill="#323232"/>
</g>
<defs>
<clipPath id="clip0_6_12331">
<rect width="24" height="24" fill="white"/>
</clipPath>
</defs>
</svg>
