<svg width="24" height="24" viewBox="0 0 24 24" fill="none" xmlns="http://www.w3.org/2000/svg">
<g clip-path="url(#clip0_6_12372)">
<path d="M12 6C15.87 6 19 9.13 19 13C19 13.84 18.84 14.65 18.57 15.4L20.09 16.92C20.67 15.73 21 14.41 21 13C21 8.03 16.97 4 12 4C10.59 4 9.26999 4.33 8.07999 4.91L9.59999 6.43C10.35 6.16 11.16 6 12 6ZM22 5.72L17.4 1.86L16.11 3.39L20.71 7.25L22 5.72ZM2.91999 2.29L1.64999 3.57L2.97999 4.9L1.86999 5.83L3.28999 7.25L4.39999 6.31L5.19999 7.11C3.82999 8.69 2.99999 10.75 2.99999 13C2.99999 17.97 7.01999 22 12 22C14.25 22 16.31 21.17 17.89 19.8L20.09 22L21.36 20.73L3.88999 3.27L2.91999 2.29ZM16.47 18.39C15.26 19.39 13.7 20 12 20C8.12999 20 4.99999 16.87 4.99999 13C4.99999 11.3 5.60999 9.74 6.60999 8.53L16.47 18.39ZM8.01999 3.28L6.59999 1.86L5.73999 2.57L7.15999 3.99L8.01999 3.28Z" fill="#323232"/>
</g>
<defs>
<clipPath id="clip0_6_12372">
<rect width="24" height="24" fill="white"/>
</clipPath>
</defs>
</svg>
