<svg width="24" height="24" viewBox="0 0 24 24" fill="none" xmlns="http://www.w3.org/2000/svg">
<g clip-path="url(#clip0_6_12360)">
<path d="M16.21 4.16L20.21 8.16V4.16H16.21ZM20.21 16.16L16.21 20.16H20.21V16.16ZM8.21002 20.16L4.21002 16.16V20.16H8.21002ZM4.21002 8.16L8.21002 4.16H4.21002V8.16ZM17.16 7.21C14.43 4.48 9.99002 4.48 7.26002 7.21C4.53002 9.94 4.53002 14.38 7.26002 17.11C9.99002 19.84 14.43 19.84 17.16 17.11C19.89 14.38 19.89 9.95 17.16 7.21ZM16.06 16.01C13.93 18.14 10.49 18.14 8.36002 16.01C6.23002 13.88 6.23002 10.44 8.36002 8.31C10.49 6.18 13.93 6.18 16.06 8.31C18.19 10.44 18.19 13.88 16.06 16.01Z" fill="#323232"/>
</g>
<defs>
<clipPath id="clip0_6_12360">
<rect width="24" height="24" fill="white"/>
</clipPath>
</defs>
</svg>
