<svg width="24" height="24" viewBox="0 0 24 24" fill="none" xmlns="http://www.w3.org/2000/svg">
<g clip-path="url(#clip0_6_12204)">
<path d="M15.1 19.37L16.1 21.11C15.14 21.55 14.09 21.84 13 21.95V19.93C13.74 19.84 14.44 19.65 15.1 19.37ZM4.07 13H2.05C2.16 14.1 2.45 15.14 2.89 16.1L4.63 15.1C4.35 14.44 4.16 13.74 4.07 13ZM15.1 4.62999L16.1 2.88999C15.14 2.44999 14.1 2.15999 13 2.04999V4.06999C13.74 4.15999 14.44 4.34999 15.1 4.62999ZM19.93 11H21.95C21.84 9.89999 21.55 8.85999 21.11 7.89999L19.37 8.89999C19.65 9.55999 19.84 10.26 19.93 11ZM8.9 19.37L7.9 21.11C8.86 21.55 9.91 21.84 11 21.95V19.93C10.26 19.84 9.56 19.65 8.9 19.37ZM11 4.06999V2.04999C9.9 2.15999 8.86 2.44999 7.9 2.88999L8.9 4.62999C9.56 4.34999 10.26 4.15999 11 4.06999ZM18.36 7.16999L20.1 6.15999C19.47 5.28999 18.7 4.51999 17.83 3.88999L16.82 5.62999C17.41 6.07999 17.92 6.58999 18.36 7.16999ZM4.63 8.89999L2.89 7.89999C2.45 8.85999 2.16 9.89999 2.05 11H4.07C4.16 10.26 4.35 9.55999 4.63 8.89999ZM19.93 13C19.84 13.74 19.65 14.44 19.37 15.1L21.11 16.1C21.55 15.14 21.84 14.09 21.95 13H19.93ZM16.83 18.36L17.84 20.1C18.71 19.47 19.48 18.7 20.11 17.83L18.37 16.82C17.92 17.41 17.41 17.92 16.83 18.36ZM7.17 5.63999L6.17 3.88999C5.29 4.52999 4.53 5.28999 3.9 6.16999L5.64 7.17999C6.08 6.58999 6.59 6.07999 7.17 5.63999ZM5.64 16.83L3.9 17.83C4.53 18.7 5.3 19.47 6.17 20.1L7.18 18.36C6.59 17.92 6.08 17.41 5.64 16.83ZM13 6.99999H11V12.41L15.29 16.7L16.7 15.29L13 11.59V6.99999Z" fill="#323232"/>
</g>
<defs>
<clipPath id="clip0_6_12204">
<rect width="24" height="24" fill="white"/>
</clipPath>
</defs>
</svg>
