<svg width="24" height="24" viewBox="0 0 24 24" fill="none" xmlns="http://www.w3.org/2000/svg">
<g clip-path="url(#clip0_6_12102)">
<path d="M20 4H6.82999L14.83 12H20V14H16.83L21.76 18.93C21.91 18.65 22 18.34 22 18V6C22 4.9 21.1 4 20 4Z" fill="#323232"/>
<path d="M1.03999 3.86995L2.23999 5.06995C2.08999 5.34995 1.99999 5.65995 1.99999 5.99995V18C1.99999 19.1 2.89999 20 3.99999 20H17.17L20.13 22.9599L21.54 21.5499L2.44999 2.44995L1.03999 3.86995ZM7.99999 12V14H3.99999V12H7.99999ZM14 16.83V18H3.99999V16H13.17L14 16.83Z" fill="#323232"/>
</g>
<defs>
<clipPath id="clip0_6_12102">
<rect width="24" height="24" fill="white"/>
</clipPath>
</defs>
</svg>
