<svg width="24" height="24" viewBox="0 0 24 24" fill="none" xmlns="http://www.w3.org/2000/svg">
<g clip-path="url(#clip0_6_12130)">
<path d="M23 21.74L21.54 20.28L7.20999 5.94999L3.24999 1.98999L1.98999 3.24999L4.68999 5.94999H4.04999C2.93999 5.94999 2.05999 6.83999 2.05999 7.94999L2.04999 18.95C2.04999 20.06 2.93999 20.95 4.04999 20.95H19.69L21.74 23L23 21.74ZM22 7.94999C22.05 6.83999 21.16 5.94999 20.05 5.99999H16.05V3.94999C16.05 2.83999 15.16 1.94999 14.05 1.99999H10.05C8.93999 1.94999 8.04999 2.83999 8.04999 3.94999V4.26999L22 18.27V7.94999ZM14.05 5.99999H9.99999V3.94999H14.05V5.99999Z" fill="#323232"/>
</g>
<defs>
<clipPath id="clip0_6_12130">
<rect width="24" height="24" fill="white"/>
</clipPath>
</defs>
</svg>
